<?xml version="1.0" encoding="utf-8"?>
<!-- Generator: Adobe Illustrator 19.1.0, SVG Export Plug-In . SVG Version: 6.00 Build 0)  -->
<svg version="1.1" id="Layer_1" xmlns="http://www.w3.org/2000/svg" xmlns:xlink="http://www.w3.org/1999/xlink" x="0px" y="0px"
	 viewBox="0 0 278.1 63.3" enable-background="new 0 0 278.1 63.3" xml:space="preserve">
<g>
	<path fill="#323641" d="M76,14.5h15.2V21h-8.3v9.9h7.3v6.6h-7.3v10.1h8.5v6.6H76V14.5z"/>
	<path fill="#323641" d="M93.4,14.5h7l3.7,25.9l3.7-25.9h6.8l-7.1,39.9h-7.2L93.4,14.5z"/>
	<path fill="#323641" d="M117.2,14.5h15.2V21h-8.3v9.9h7.3v6.6h-7.3v10.1h8.5v6.6h-15.4V14.5z"/>
	<path fill="#323641" d="M135.9,14.5h7.2c7.1,0,12.3,3.8,12.3,12.7v0.5c0,5.2-2,8.5-4.7,10.4l5.3,16.1h-7.4l-4.5-13.9h-1.3v13.9
		h-6.9V14.5z M143.2,34.1c3,0,5.2-1.8,5.2-6.4v-0.5c0-5-2.4-6.3-5.4-6.3h-0.2v13.2H143.2z"/>
	<path fill="#323641" d="M162.7,38.5l-7.4-24.1h7.2l3.7,14.9l3.8-14.9h7l-7.4,24.1v15.7h-6.9V38.5z"/>
	<path fill="#323641" d="M186.1,14.5h7l3.7,25.9l3.7-25.9h6.8l-7.1,39.9h-7.2L186.1,14.5z"/>
	<path fill="#323641" d="M208.3,35.4v-2c0-13.1,4.3-19.4,10.6-19.4c6.3,0,10.6,6.3,10.6,19.4v2c0,13.1-4.3,19.4-10.6,19.4
		C212.6,54.8,208.3,48.5,208.3,35.4z M222.4,35.4v-2c0-10.2-1.4-13.1-3.5-13.1c-2.1,0-3.5,2.8-3.5,13.1v2c0,10.2,1.4,13.1,3.5,13.1
		C221,48.4,222.4,45.6,222.4,35.4z"/>
	<path fill="#323641" d="M233,14.5h6.9v39.7H233V14.5z"/>
	<path fill="#323641" d="M243.4,35v-1.4c0-14,5.2-19.5,11.6-19.5c1.9,0,3.1,0.2,4.5,0.9v7.2c-1.4-0.8-2.6-1.3-3.9-1.3
		c-3.1,0-5.3,2.7-5.3,12.7v1.5c0,10.5,2.2,12.7,5.4,12.7c1.1,0,2.4-0.4,3.9-1.3v6.8c-1.6,0.9-3.1,1.2-5.1,1.2
		C248.2,54.5,243.4,48.9,243.4,35z"/>
	<path fill="#323641" d="M262.7,14.5H278V21h-8.3v9.9h7.3v6.6h-7.3v10.1h8.5v6.6h-15.4V14.5z"/>
	<path fill="#E43E3A" d="M59.7,21.9c0,4.7-1.8,9.1-5.5,13c-3.6,4-8.1,6.4-13.5,7.2l-0.7-0.5c0.7-0.4,1.4-0.9,2.1-1.6
		c0.6-0.6,1.2-1.3,1.7-2.1c0.5-0.8,0.9-1.6,1.2-2.5c0.3-0.9,0.5-1.8,0.6-2.8c-6.2-1.9-9.3-5.6-9.3-11.2c0-3.5,1.1-6.4,3.4-8.7
		c2.3-2.4,5.1-3.5,8.4-3.5c3.4,0,6.1,1.2,8.3,3.6C58.6,15.2,59.7,18.2,59.7,21.9z"/>
	<path fill="#5F6676" d="M18.2,32.2V27c4.1,0,6.2-2.5,6.2-7.4v-3.6h-6.2V0h16.1v12.4C34.2,24.8,28.9,31.4,18.2,32.2z"/>
	<path fill="#F2B21C" d="M36.9,33.6c0.7,0.9,0.5,1.8-0.1,2.3c-1.2,0.9-7.5,5.6-7.6,12.8c0,0,1.8-0.7,4.3-0.7c4.2,0,7.7,3.3,7.7,7.6
		c0,4.2-3.5,7.7-8.4,7.7c-4.1,0-9.7-3.1-9.7-12.4c0-11.2,7.5-17.1,9.9-19.1c0.7-0.5,1.5-0.8,2.3,0.2L36.9,33.6z"/>
	<path fill="#36BACD" d="M3.4,54.2c-2.3,0-3.4-1.1-3.4-3.4V38.2C0,30,3.6,23.5,12.3,22.5c1.5-0.1,2,1.2,1,2.5
		c-3,3.6-3.5,6.4-3.6,8.7c0,0.7,0.5,1.1,1.1,1.1H16c2.1,0,3.4,1.2,3.4,3.4v12.6c0,2.3-1.2,3.4-3.4,3.4H3.4z"/>
</g>
</svg>
