<?xml version="1.0" encoding="utf-8"?>
<!-- Generator: Adobe Illustrator 19.1.0, SVG Export Plug-In . SVG Version: 6.00 Build 0)  -->
<svg version="1.1" id="Layer_1" xmlns="http://www.w3.org/2000/svg" xmlns:xlink="http://www.w3.org/1999/xlink" x="0px" y="0px"
	 viewBox="-166 365.7 278.1 63.3" style="enable-background:new -166 365.7 278.1 63.3;" xml:space="preserve">
<style type="text/css">
	.st0{fill:#FFFFFF;}
</style>
<g>
	<path class="st0" d="M-90,380.2h15.2v6.5h-8.3v9.9h7.3v6.6h-7.3v10.1h8.5v6.6H-90V380.2z"/>
	<path class="st0" d="M-72.6,380.2h7l3.7,25.9l3.7-25.9h6.8l-7.1,39.9h-7.2L-72.6,380.2z"/>
	<path class="st0" d="M-48.8,380.2h15.2v6.5h-8.3v9.9h7.3v6.6h-7.3v10.1h8.5v6.6h-15.4C-48.8,419.9-48.8,380.2-48.8,380.2z"/>
	<path class="st0" d="M-30.1,380.2h7.2c7.1,0,12.3,3.8,12.3,12.7v0.5c0,5.2-2,8.5-4.7,10.4l5.3,16.1h-7.4l-4.5-13.9h-1.3v13.9h-6.9
		L-30.1,380.2L-30.1,380.2z M-22.8,399.8c3,0,5.2-1.8,5.2-6.4v-0.5c0-5-2.4-6.3-5.4-6.3h-0.2v13.2H-22.8z"/>
	<path class="st0" d="M-3.3,404.2l-7.4-24.1h7.2L0.2,395L4,380.1h7l-7.4,24.1v15.7h-6.9L-3.3,404.2L-3.3,404.2z"/>
	<path class="st0" d="M20.1,380.2h7l3.7,25.9l3.7-25.9h6.8l-7.1,39.9H27L20.1,380.2z"/>
	<path class="st0" d="M42.3,401.1v-2c0-13.1,4.3-19.4,10.6-19.4s10.6,6.3,10.6,19.4v2c0,13.1-4.3,19.4-10.6,19.4
		S42.3,414.2,42.3,401.1z M56.4,401.1v-2c0-10.2-1.4-13.1-3.5-13.1s-3.5,2.8-3.5,13.1v2c0,10.2,1.4,13.1,3.5,13.1
		C55,414.1,56.4,411.3,56.4,401.1z"/>
	<path class="st0" d="M67,380.2h6.9v39.7H67V380.2z"/>
	<path class="st0" d="M77.4,400.7v-1.4c0-14,5.2-19.5,11.6-19.5c1.9,0,3.1,0.2,4.5,0.9v7.2c-1.4-0.8-2.6-1.3-3.9-1.3
		c-3.1,0-5.3,2.7-5.3,12.7v1.5c0,10.5,2.2,12.7,5.4,12.7c1.1,0,2.4-0.4,3.9-1.3v6.8c-1.6,0.9-3.1,1.2-5.1,1.2
		C82.2,420.2,77.4,414.6,77.4,400.7z"/>
	<path class="st0" d="M96.7,380.2H112v6.5h-8.3v9.9h7.3v6.6h-7.3v10.1h8.5v6.6H96.8v-39.7H96.7z"/>
	<path class="st0" d="M-106.3,387.6c0,4.7-1.8,9.1-5.5,13c-3.6,4-8.1,6.4-13.5,7.2l-0.7-0.5c0.7-0.4,1.4-0.9,2.1-1.6
		c0.6-0.6,1.2-1.3,1.7-2.1c0.5-0.8,0.9-1.6,1.2-2.5c0.3-0.9,0.5-1.8,0.6-2.8c-6.2-1.9-9.3-5.6-9.3-11.2c0-3.5,1.1-6.4,3.4-8.7
		c2.3-2.4,5.1-3.5,8.4-3.5c3.4,0,6.1,1.2,8.3,3.6C-107.4,380.9-106.3,383.9-106.3,387.6z"/>
	<path class="st0" d="M-147.8,397.9v-5.2c4.1,0,6.2-2.5,6.2-7.4v-3.6h-6.2v-16h16.1v12.4C-131.8,390.5-137.1,397.1-147.8,397.9z"/>
	<path class="st0" d="M-129.1,399.3c0.7,0.9,0.5,1.8-0.1,2.3c-1.2,0.9-7.5,5.6-7.6,12.8c0,0,1.8-0.7,4.3-0.7c4.2,0,7.7,3.3,7.7,7.6
		c0,4.2-3.5,7.7-8.4,7.7c-4.1,0-9.7-3.1-9.7-12.4c0-11.2,7.5-17.1,9.9-19.1c0.7-0.5,1.5-0.8,2.3,0.2L-129.1,399.3z"/>
	<path class="st0" d="M-162.6,419.9c-2.3,0-3.4-1.1-3.4-3.4v-12.6c0-8.2,3.6-14.7,12.3-15.7c1.5-0.1,2,1.2,1,2.5
		c-3,3.6-3.5,6.4-3.6,8.7c0,0.7,0.5,1.1,1.1,1.1h5.2c2.1,0,3.4,1.2,3.4,3.4v12.6c0,2.3-1.2,3.4-3.4,3.4
		C-150,419.9-162.6,419.9-162.6,419.9z"/>
</g>
</svg>
