<svg id="Layer_1" data-name="Layer 1" xmlns="http://www.w3.org/2000/svg" viewBox="0 0 66.97 99.75"><defs><style>.cls-1{fill:none;}.cls-2{fill:#fff;}</style></defs><title>icon_medalribbon</title><path class="cls-1" d="M504.69,264.25l8.62-5.3-9.84-2.38,6.56-7.71-10.09.78,3.86-9.36-9.36,3.86L495.21,234l-7.71,6.56-2.38-9.84-5.3,8.62-5.3-8.62-2.38,9.84L464.43,234l0.78,10.09-9.36-3.86,3.86,9.36-10.09-.78,6.56,7.71-9.84,2.38,8.62,5.3-8.62,5.3,9.84,2.38-6.56,7.71,10.09-.78-3.86,9.36,4.69-1.93-7.9,22.11,12.63,22.11,14.55-40.73,14.55,40.73L507,308.4l-7.9-22.11,4.69,1.93-3.86-9.36L510,279.64l-6.56-7.71,9.84-2.38Zm-40,59.11-8.71-15.25,8.34-23.36,0.93-.38-0.78,10.09,7.71-6.56,2.09,8.63Zm39.07-15.25L495,323.36l-9.58-26.83,2.09-8.63,7.71,6.56-0.78-10.09,0.93,0.38Zm-0.64-32-7.77-.6,3,7.2-7.2-3,0.6,7.77-5.93-5.05L483.9,290l-4.08-6.64L475.74,290l-1.83-7.57L468,287.5l0.6-7.77-7.2,3,3-7.2-7.77.6,5.05-5.93L454,268.33l6.64-4.08L454,260.17l7.57-1.83-5.05-5.93,7.77,0.6-3-7.2,7.2,3L468,241l5.93,5.05,1.83-7.57,4.08,6.64,4.08-6.64,1.83,7.57,5.93-5.05-0.6,7.77,7.2-3-3,7.2,7.77-.6L498,258.34l7.57,1.83L499,264.25l6.64,4.08L498,270.16Z" transform="translate(-446.33 -230.76)"/><polygon class="cls-2" points="18.31 92.59 9.6 77.35 17.94 53.99 18.87 53.6 18.1 63.7 25.8 57.13 27.89 65.77 18.31 92.59"/><polygon class="cls-2" points="57.38 77.35 48.67 92.59 39.08 65.77 41.17 57.13 48.88 63.7 48.1 53.6 49.03 53.99 57.38 77.35"/><polygon class="cls-2" points="56.74 45.33 48.97 44.73 51.94 51.94 44.74 48.97 45.34 56.74 39.4 51.69 37.57 59.26 33.49 52.62 29.41 59.26 27.57 51.69 21.64 56.74 22.24 48.97 15.04 51.94 18.01 44.73 10.24 45.33 15.29 39.4 7.71 37.57 14.35 33.49 7.71 29.4 15.29 27.57 10.24 21.64 18.01 22.24 15.04 15.03 22.24 18 21.64 10.23 27.57 15.29 29.41 7.71 33.49 14.35 37.57 7.71 39.4 15.29 45.34 10.23 44.74 18 51.94 15.03 48.97 22.24 56.74 21.64 51.69 27.57 59.26 29.4 52.63 33.49 59.26 37.57 51.69 39.4 56.74 45.33"/></svg>