<svg id="Layer_1" data-name="Layer 1" xmlns="http://www.w3.org/2000/svg" viewBox="0 0 74.34 92.31"><defs><style>.cls-1{fill:none;}.cls-2{fill:#fff;}</style></defs><title>icon_thumbsup</title><path class="cls-1" d="M517.14,298.92L517,288l-2.92-2.3,2.53-2.57-1.39-10.8-4-2.48L502.75,271H477.64l2.24-7.37-0.26-12.85-5-13.27-11.23-3.86-5.51.35,4.22,21.1-1.84,10.68-12.78,14.54-4.68,1.06,1.36,40.6,10.68-2.3L470,324.22l16.29-.33,0.12,0.12,22.48,1.92,3.09-2.22,0.75-8.74-0.47-.49,2.8-1.95,0.56-9.71-1.57-1.43Zm-4.72,0-14.52.22-12.37-.71-1.81.91L479.51,296l-0.08-5,4-2.41,28.8-.44L514,289.5l0.12,8ZM510.51,273l1.9,1.17,1,7.94-1.53,1.56-13,1.67-16.26.25-1,.6-2.75-1.7-0.64-5,3.72-2.85Zm-30,1-4,3-0.19-1.87,0.36-1.17h3.8Zm3,47-13.06.26L455,316.55,447,318.26l-1.16-34.53,3.21-.73,14-15.91L465.15,255l-3.66-18.28,1.49-.09,9.32,3.2,4.32,11.46,0.24,11.86-3.55,11.66,1.22,12-9.13,10.09,2.22,2,10-11.08-0.06-.62,1.1,0.69-2.3,1.38,0.13,8.16,4.24,3.34-1,.52-0.42,7.34,4.2,3.84-0.79.41-0.57,6.64Zm25.63,1.13-1.07.77-20.25-1.73-2.56-2.68,0.31-3.64,2.63-1.34,10,0.74,10.54,0.9,0.93,1Zm3-11.17-1.45,1-12.34-.71-10.65-.91-0.51.26-1.47-.08-3.37-3.08,0.24-4.19,3.53-1.78,25.08,1.45,1.33,1.21Z" transform="translate(-442.8 -233.62)"/><polygon class="cls-2" points="69.62 65.26 55.1 65.48 42.73 64.77 40.92 65.68 36.71 62.36 36.63 57.36 40.65 54.95 69.45 54.51 71.2 55.88 71.32 63.88 69.62 65.26"/><polygon class="cls-2" points="67.7 39.37 69.6 40.54 70.62 48.48 69.09 50.04 56.06 51.71 39.8 51.96 38.8 52.55 36.05 50.85 35.42 45.88 39.14 43.04 67.7 39.37"/><polygon class="cls-2" points="37.73 40.34 33.76 43.38 33.57 41.51 33.92 40.34 37.73 40.34"/><polygon class="cls-2" points="40.72 87.33 27.65 87.59 12.17 82.93 4.24 84.64 3.08 50.11 6.29 49.38 20.27 33.47 22.35 21.41 18.69 3.13 20.18 3.03 29.5 6.24 33.83 17.7 34.07 29.56 30.52 41.21 31.75 53.2 22.61 63.3 24.84 65.31 34.87 54.23 34.8 53.6 35.9 54.3 33.61 55.67 33.73 63.84 37.97 67.17 36.94 67.69 36.52 75.03 40.72 78.87 39.93 79.28 39.36 85.92 40.72 87.33"/><polygon class="cls-2" points="66.35 88.47 65.28 89.23 45.03 87.51 42.47 84.82 42.78 81.18 45.4 79.84 55.39 80.58 65.92 81.48 66.86 82.45 66.35 88.47"/><polygon class="cls-2" points="69.38 77.29 67.93 78.3 55.6 77.59 44.95 76.68 44.44 76.94 42.97 76.86 39.59 73.78 39.84 69.59 43.36 67.81 68.44 69.26 69.77 70.47 69.38 77.29"/></svg>