<?xml version="1.0" encoding="utf-8"?>
<!-- Generator: Adobe Illustrator 19.1.0, SVG Export Plug-In . SVG Version: 6.00 Build 0)  -->
<svg version="1.1" id="Layer_1" xmlns="http://www.w3.org/2000/svg" xmlns:xlink="http://www.w3.org/1999/xlink" x="0px" y="0px"
	 viewBox="0 0 36 25" style="enable-background:new 0 0 36 25;" xml:space="preserve">
<path style="fill-rule:evenodd;clip-rule:evenodd;fill:#FFFFFF;" d="M36,6.6c0-0.7-0.2-3.9-1.7-4.4C31.1,1,23.3,0,18,0
	C12.7,0,4.9,1,1.7,2.1C0.2,2.7,0,5.9,0,6.6C0,6.8,0,7,0,7.2l0.3,1.5c0.2,0.8,1,1.3,1.8,1.2L9,8.5c0.8-0.2,1.4-0.9,1.2-1.8L9.9,5
	c0.6-0.1,1.3-0.2,1.9-0.2l-0.2,3c0,0-10.3,5.4-10.3,7.5c0,2,0,9.9,0,9.9H18h16.7c0,0,0-7.9,0-9.9c0-2-10.3-7.5-10.3-7.5l-0.2-3
	c0.6,0.1,1.3,0.2,1.9,0.2l-0.4,1.8c-0.2,0.8,0.4,1.6,1.2,1.8l6.9,1.3c0.8,0.2,1.6-0.4,1.8-1.2L36,7.2C36,7,36,6.8,36,6.6z M18,4.2
	c0.6,0,3.1,0.1,3.8,0.2c0,0-0.2,2.9-0.2,2.9H18h-3.6l-0.2-2.9C15.6,4.3,16.9,4.2,18,4.2z M18,21c-2.7,0-4.8-2-4.8-4.4
	s2.2-4.4,4.8-4.4s4.8,2,4.8,4.4S20.7,21,18,21z"/>
</svg>
